<svg width="1440" height="1024" viewBox="0 0 1440 1024" fill="none" xmlns="http://www.w3.org/2000/svg">
<g clip-path="url(#clip0_2006_686)">
<rect width="1440" height="1024" fill="#171717" style="fill:#171717;fill:color(display-p3 0.0902 0.0902 0.0902);fill-opacity:1;"/>
<g filter="url(#filter0_f_2006_686)">
<path fill-rule="evenodd" clip-rule="evenodd" d="M468.198 233.742C532.832 173.646 634.659 244.222 722.812 239.963C802.218 236.126 879.333 174.665 950.323 210.447C1030.65 250.935 1087.91 337.11 1093.66 426.881C1099.29 514.815 1043.69 594.196 978.697 653.691C922.428 705.197 845.112 710.853 769.849 723.286C685.739 737.181 592.298 779.701 523.895 728.822C454.522 677.223 464.587 574.959 454.922 489.042C445.018 401.011 403.321 294.063 468.198 233.742Z" fill="#CAA8F5" style="fill:#CAA8F5;fill:color(display-p3 0.7922 0.6588 0.9608);fill-opacity:1;"/>
</g>
</g>
<defs>
<filter id="filter0_f_2006_686" x="-367.4" y="-600.702" width="2261.45" height="2153.86" filterUnits="userSpaceOnUse" color-interpolation-filters="sRGB">
<feFlood flood-opacity="0" result="BackgroundImageFix"/>
<feBlend mode="normal" in="SourceGraphic" in2="BackgroundImageFix" result="shape"/>
<feGaussianBlur stdDeviation="400" result="effect1_foregroundBlur_2006_686"/>
</filter>
<clipPath id="clip0_2006_686">
<rect width="1440" height="1024" fill="white" style="fill:white;fill-opacity:1;"/>
</clipPath>
</defs>
</svg>
